<svg xmlns="http://www.w3.org/2000/svg" viewBox="0 0 343.07 89.83"><defs><style>.cls-1{fill:#504689;}</style></defs><g id="Layer_2" data-name="Layer 2"><g id="Layer_1-2" data-name="Layer 1"><path class="cls-1" d="M148.41,29.06h6.85V60.77h-6.85V56.2c-2.6,3.62-6.28,5.39-11.1,5.39a14.83,14.83,0,0,1-11.16-4.82,16.49,16.49,0,0,1-4.63-11.85,16.39,16.39,0,0,1,4.63-11.86,14.83,14.83,0,0,1,11.16-4.82c4.82,0,8.5,1.77,11.1,5.32Zm-10,26a9.79,9.79,0,0,0,7.17-2.85,10.06,10.06,0,0,0,2.85-7.29,9.84,9.84,0,0,0-2.85-7.24,10.29,10.29,0,0,0-14.34,0,9.84,9.84,0,0,0-2.85,7.24,10.06,10.06,0,0,0,2.85,7.29A9.79,9.79,0,0,0,138.39,55.06Z"/><path class="cls-1" d="M165,56.77a16.12,16.12,0,0,1-4.88-11.85,16.74,16.74,0,1,1,33.48,0A16.82,16.82,0,0,1,165,56.77Zm11.86-1.84a9.57,9.57,0,0,0,7-2.85,9.75,9.75,0,0,0,2.85-7.16,9.75,9.75,0,0,0-2.85-7.17,10.09,10.09,0,0,0-14.08,0A9.75,9.75,0,0,0,167,44.92a9.75,9.75,0,0,0,2.85,7.16A9.57,9.57,0,0,0,176.86,54.93Z"/><path class="cls-1" d="M201.51,56.77a16.12,16.12,0,0,1-4.88-11.85,16.75,16.75,0,1,1,33.49,0,16.82,16.82,0,0,1-28.61,11.85Zm11.86-1.84a9.57,9.57,0,0,0,7-2.85,9.76,9.76,0,0,0,2.86-7.16,9.76,9.76,0,0,0-2.86-7.17,10.09,10.09,0,0,0-14.08,0,9.75,9.75,0,0,0-2.85,7.17,9.75,9.75,0,0,0,2.85,7.16A9.57,9.57,0,0,0,213.37,54.93Z"/><path class="cls-1" d="M241.79,34.39c1.71-3.94,5-5.9,9.76-5.9v7.42a9.91,9.91,0,0,0-6.85,1.9c-2,1.4-2.91,3.74-2.91,7v16h-6.85V29.06h6.85Z"/><path class="cls-1" d="M257.83,56.77a16.09,16.09,0,0,1-4.89-11.85,16.75,16.75,0,1,1,33.49,0,16.82,16.82,0,0,1-28.6,11.85Zm11.85-1.84a9.55,9.55,0,0,0,7-2.85,9.72,9.72,0,0,0,2.86-7.16,9.72,9.72,0,0,0-2.86-7.17,10.08,10.08,0,0,0-14.07,0,9.72,9.72,0,0,0-2.86,7.17,9.72,9.72,0,0,0,2.86,7.16A9.55,9.55,0,0,0,269.68,54.93Z"/><path class="cls-1" d="M298.1,34.39c1.71-3.94,5-5.9,9.77-5.9v7.42a9.88,9.88,0,0,0-6.85,1.9c-2,1.4-2.92,3.74-2.92,7v16h-6.85V29.06h6.85Z"/><path class="cls-1" d="M336.22,29.06h6.85V60.77h-6.85V56.2c-2.6,3.62-6.28,5.39-11.1,5.39A14.81,14.81,0,0,1,314,56.77a16.49,16.49,0,0,1-4.63-11.85A16.39,16.39,0,0,1,314,33.06a14.81,14.81,0,0,1,11.16-4.82c4.82,0,8.5,1.77,11.1,5.32Zm-10,26a9.75,9.75,0,0,0,7.16-2.85,10,10,0,0,0,2.86-7.29,9.8,9.8,0,0,0-2.86-7.24,10.28,10.28,0,0,0-14.33,0,9.84,9.84,0,0,0-2.85,7.24A10.06,10.06,0,0,0,319,52.21,9.75,9.75,0,0,0,326.2,55.06Z"/><path class="cls-1" d="M35,31.82l.1-.2A5,5,0,0,1,39.5,29H50.32a5,5,0,0,1,4.42,2.67l.1.2a8.89,8.89,0,0,0,7.85,4.74H89a45.48,45.48,0,0,0-1.6-6.12H57.27a5,5,0,0,1-4.42-2.67A9.14,9.14,0,0,0,46.62,23a8.3,8.3,0,0,0-1.71-.15,8.39,8.39,0,0,0-1.72.15A9.1,9.1,0,0,0,37,27.77a5,5,0,0,1-4.42,2.67H2.39A44.06,44.06,0,0,0,.78,36.56H27.13A8.86,8.86,0,0,0,35,31.82Z"/><path class="cls-1" d="M42.36,18.08a3.63,3.63,0,0,1,5.09,0,12.13,12.13,0,0,0,8.66,3.26h27a45.46,45.46,0,0,0-4.53-6.12H11.22a45.46,45.46,0,0,0-4.53,6.12h27A12.11,12.11,0,0,0,42.36,18.08Z"/><path class="cls-1" d="M44.91,89.83a44.73,44.73,0,0,0,22.63-6.12H22.28A44.67,44.67,0,0,0,44.91,89.83Z"/><path class="cls-1" d="M44.91,0A44.67,44.67,0,0,0,22.28,6.12H67.54A44.73,44.73,0,0,0,44.91,0Z"/><path class="cls-1" d="M65.25,45.66A5,5,0,0,1,60.82,43l-.1-.19a8.83,8.83,0,0,0-7.82-4.74h-16a8.85,8.85,0,0,0-7.83,4.74L29,43a5,5,0,0,1-4.42,2.68H0a45.56,45.56,0,0,0,.53,6.12H19.17A8.83,8.83,0,0,0,27,47l.1-.2a5,5,0,0,1,4.42-2.67h26.8a5,5,0,0,1,4.41,2.67l.1.2a8.84,8.84,0,0,0,7.83,4.74H89.29a45.54,45.54,0,0,0,.52-6.12Z"/><path class="cls-1" d="M68.8,58.21l-.1-.2a8.85,8.85,0,0,0-7.83-4.74H29A8.86,8.86,0,0,0,21.11,58l-.1.2a5,5,0,0,1-4.42,2.67H2.93A44.22,44.22,0,0,0,5.8,67h5.38A8.85,8.85,0,0,0,19,62.26l.11-.2a5,5,0,0,1,4.42-2.67H66.28a5,5,0,0,1,4.42,2.67l.1.2A8.86,8.86,0,0,0,78.64,67H84a45.47,45.47,0,0,0,2.88-6.12H73.22A5,5,0,0,1,68.8,58.21Z"/><path class="cls-1" d="M67,68.49H22.79c-4.5,0-6.89,0-10.7,6.12H77.72C73.91,68.49,71.53,68.49,67,68.49Z"/></g></g></svg>