<?xml version="1.0" encoding="UTF-8"?>
<svg width="198px" height="43px" viewBox="0 0 198 43" version="1.1" xmlns="http://www.w3.org/2000/svg" xmlns:xlink="http://www.w3.org/1999/xlink">
    <title>creditario</title>
    <g id="Creditario" stroke="none" stroke-width="1" fill="none" fill-rule="evenodd">
        <g id="creditario" transform="translate(0.890000, 0.469984)" fill-rule="nonzero">
            <path d="M20.9999972,42.0000025 L20.6492486,41.9970804 C9.21381368,41.8080376 0.0018015039,32.4800832 0,21.0000053 C0,9.40202429 9.40201902,5.26647614e-06 21,5.26647614e-06 L20.9999972,0 L21,5.26647614e-06 L21.4119373,0.00374462828 C27.8573302,0.125511935 33.8985179,3.20683946 37.7808771,8.3723162 C40.5250369,12.0096837 42.0064807,16.443599 42.0000157,21 L42.0000157,21 C41.9963558,32.5964732 32.5964679,41.9963611 20.9999972,42.0000025 L21,42.0000053 L20.9999972,42.0000025 Z" id="Combined-Shape" fill="#FFFFFF"></path>
            <g id="Group-4" transform="translate(1.000000, 1.000000)">
                <path d="M0,20.000005 C0.00173322534,31.0449781 8.95502189,39.9982668 20,40.000005 L20,5.0156916e-06 C8.95430388,5.0156916e-06 0,8.9543089 0,20.000005 Z" id="Path" fill="#BED84E"></path>
                <path d="M35.981788,7.97363453 C32.2056331,2.94946259 26.2850298,-0.00444276589 19.9999975,0 L19.9999975,20 L40.0000152,20 C40.0061723,15.6605705 38.5952735,11.4377941 35.981788,7.97363453 Z" id="Path" fill="#076473"></path>
                <path d="M29.9513383,20.0000025 L19.9999975,20.0000025 L19.9999975,40.0000025 C31.0442554,39.9965346 39.9965296,31.0442604 39.9999975,20.0000025 L29.9513383,20.0000025 Z" id="Path" fill="#54B087"></path>
                <polygon id="Path" fill="#FFFFFF" transform="translate(20.003066, 20.000535) rotate(-45.000000) translate(-20.003066, -20.000535) " points="15.3177741 15.3152425 24.6883583 15.3152425 24.6883583 24.6858268 15.3177741 24.6858268"></polygon>
            </g>
            <g id="Group" transform="translate(50.948197, 9.014444)" fill="#002740">
                <path d="M10.4347813,18.8604591 C11.4667225,18.8864065 12.4919218,18.6871514 13.4390189,18.2765634 C14.4083975,17.7891342 15.2959281,17.1536708 16.0696888,16.3930289 L18.2420319,18.6218781 C16.1261948,20.9742034 13.5572631,22.1503661 10.5352365,22.1503661 C7.51320986,22.1503661 5.00183048,21.178253 3.00109835,19.2340268 C1.00664467,17.2877078 0.0104639761,14.8276024 0.012553606,11.8537106 C0.0146498177,8.87981891 1.02966554,6.40087818 3.05760439,4.41688847 C5.08972876,2.43289877 7.65447495,1.44090392 10.7518429,1.44090392 C13.721513,1.38348964 16.5649821,2.64036043 18.5214229,4.87521521 L16.3836112,7.2202157 C15.6031241,6.42610759 14.6879988,5.77669807 13.6807391,5.3021497 C12.7313957,4.92136702 11.7148144,4.73663111 10.6921977,4.75906391 C8.80191633,4.70865366 6.96947582,5.41361219 5.600376,6.71793983 C4.2313575,8.01695429 3.48210441,9.83868949 3.54104492,11.7250025 C3.49073979,13.632123 4.2315672,15.4751013 5.58781911,16.8168241 C6.85213067,18.1378604 8.60630343,18.877476 10.4347813,18.8604591 L10.4347813,18.8604591 Z" id="Path"></path>
                <path d="M29.8854146,9.70962051 C28.3011526,9.70962051 27.109294,10.2244533 26.3098382,11.2541188 C25.5103823,12.2837844 25.1117008,13.6660894 25.1137937,15.401034 L25.1137937,21.9212027 L21.911785,21.9212027 L21.911785,6.70538293 L25.1137937,6.70538293 L25.1137937,9.76612654 C25.6150892,8.82598075 26.3367846,8.0213444 27.217074,7.42112605 C28.0424303,6.82968688 29.0272273,6.50142132 30.0423758,6.47935879 L30.0706288,9.71275973 L29.8854146,9.70962051 Z" id="Path"></path>
                <path d="M47.4179818,15.7149564 L35.4889298,15.7149564 C35.5524451,16.7933247 36.112505,17.7812563 37.0051751,18.3895755 C37.9358091,19.0652501 39.0604054,19.4210234 40.210323,19.4035449 C42.1168784,19.4035449 43.5661537,18.8029067 44.5581485,17.6016302 L46.3883163,19.6044552 C44.7475483,21.3038219 42.6118295,22.1524589 39.9811596,22.1503661 C37.9534079,22.1929047 35.9922579,21.4258421 34.5314664,20.0188328 C33.0351027,18.5999035 32.2869211,16.693348 32.2869211,14.2991663 C32.2869211,11.9049846 33.0497526,10.0026148 34.5754155,8.59205668 C36.0273158,7.21068354 37.9615696,6.45140161 39.9654635,6.47621956 C41.8978676,6.42960676 43.7790094,7.10064428 45.2456387,8.35975409 C46.6938673,9.61544378 47.4179818,11.3357387 47.4179818,13.5206387 L47.4179818,15.7149564 Z M35.4889298,13.2035771 L44.2128339,13.2035771 C44.2128339,11.9248664 43.8131061,10.9433356 43.0136502,10.2589847 C42.1869657,9.56361264 41.1331347,9.19706273 40.0533618,9.2293192 C38.9090917,9.21962977 37.7951157,9.59685499 36.892163,10.2997947 C35.9789903,10.9726164 35.4544696,12.050993 35.4889298,13.1847417 L35.4889298,13.2035771 Z" id="Shape"></path>
                <path d="M52.111122,19.9780229 C50.6817287,18.5277013 49.9670319,16.6200994 49.9670319,14.2552172 C49.9670319,11.8903349 50.6995174,10.0068004 52.1644888,8.60461358 C53.559718,7.22425196 55.4507879,6.46194268 57.4132717,6.48877646 C59.4453961,6.48877646 61.0809319,7.34683107 62.3198792,9.06294032 L62.3198792,1.95573669 L65.5218879,1.95573669 L65.5218879,21.9212027 L62.3198792,21.9212027 L62.3198792,19.6327083 C61.1374379,21.3069612 59.4119112,22.1441585 57.1432984,22.1441585 C55.2377799,22.1527473 53.4146161,21.3679795 52.111122,19.9780229 L52.111122,19.9780229 Z M53.1690406,14.3839254 C53.1184046,15.7154929 53.6272408,17.0075043 54.5722738,17.9469449 C55.4368253,18.83244 56.624655,19.3277468 57.8621808,19.3187858 C59.0790894,19.3367569 60.2451596,18.8314598 61.0641895,17.9312487 C61.956622,16.9655462 62.4296459,15.685334 62.3795244,14.3713685 C62.4216086,13.0370285 61.9509083,11.7372662 61.0641895,10.739286 C60.2561777,9.79730378 59.0717261,9.26257555 57.8307885,9.27954679 C56.5759581,9.26938763 55.3778446,9.80150117 54.5440208,10.739286 C53.6207812,11.7241379 53.1252628,13.0346096 53.1659014,14.3839254 L53.1690406,14.3839254 Z" id="Shape"></path>
                <path d="M70.3562932,3.67289233 C69.6865406,2.99170262 69.5900811,1.93271205 70.1257385,1.14172596 C70.6613963,0.350739871 71.6805388,0.0472377589 72.5616619,0.41630461 C73.442785,0.785371492 73.9413977,1.72460019 73.753431,2.66121998 C73.5654643,3.59783973 72.7430739,4.2719612 71.7877794,4.27248416 C71.2482705,4.27898066 70.7301208,4.06194864 70.3562932,3.67289233 L70.3562932,3.67289233 Z M73.3605307,21.9212027 L70.1553828,21.9212027 L70.1553828,6.70538293 L73.3605307,6.70538293 L73.3605307,21.9212027 Z" id="Shape"></path>
                <path d="M81.9337521,9.27954679 L81.9337521,17.0020384 C81.9010094,17.6297941 82.104879,18.2470038 82.5050909,18.7317509 C82.9175554,19.1740594 83.5054417,19.4099042 84.1092345,19.3752919 C84.7935853,19.3752919 85.4528224,19.0425341 86.0806673,18.3738793 L87.3960022,20.6341208 C86.3917832,21.5967376 85.0576327,22.1391574 83.6666039,22.1503661 C82.3586878,22.1738355 81.0978523,21.6624715 80.1757865,20.734576 C79.213091,19.7886231 78.7317434,18.5161908 78.7317434,16.9172793 L78.7317434,9.27954679 L76.8136774,9.27954679 L76.8136774,6.70538293 L78.7317434,6.70538293 L78.7317434,1.92748367 L81.9337521,1.92748367 L81.9337521,6.70538293 L85.9394022,6.70538293 L85.9394022,9.27954679 L81.9337521,9.27954679 Z" id="Path"></path>
                <path d="M102.275925,21.9212027 L99.3595857,21.9212027 L99.3595857,19.8901246 C98.103896,21.3969523 96.4160397,22.1503661 94.2960171,22.1503661 C92.8641409,22.2022233 91.4634985,21.7237915 90.3625691,20.8067781 C89.318741,19.9119389 88.7407081,18.5893996 88.792957,17.2155056 C88.792957,15.7212349 89.3454605,14.6015782 90.4504674,13.8565357 C91.5554743,13.1114932 93.0528843,12.7389719 94.9426972,12.7389719 L99.0896124,12.7389719 L99.0896124,12.1676331 C99.0896124,10.1459727 97.9647239,9.13514247 95.7149464,9.13514247 C94.3022955,9.13514247 92.8373241,9.64997525 91.3200325,10.6796408 L89.8885463,8.67995496 C91.66301,7.24119297 93.882607,6.46433402 96.1669947,6.48249801 C97.960538,6.48249801 99.4255094,6.93559269 100.561909,7.8417821 C101.698308,8.7479715 102.265461,10.1731793 102.263368,12.1174055 L102.275925,21.9212027 Z M99.0739163,16.2705991 L99.0739163,14.9835172 L95.4700869,14.9835172 C93.1679893,14.9835172 92.0169403,15.708678 92.0169403,17.1589996 C91.9859828,17.8376327 92.3122496,18.4830215 92.8770877,18.8604591 C93.4484265,19.2497229 94.2457895,19.4443548 95.2628981,19.4443548 C96.2248007,19.4631498 97.1656648,19.1616758 97.9375171,18.5873466 C98.6822724,18.0500275 99.1088154,17.1757318 99.0739163,16.2580422 L99.0739163,16.2705991 Z" id="Shape"></path>
                <path d="M114.71981,9.70962051 C113.133455,9.70962051 111.941596,10.2244533 111.144233,11.2541188 C110.34687,12.2837844 109.946096,13.6660894 109.941911,15.401034 L109.941911,21.9212027 L106.733623,21.9212027 L106.733623,6.70538293 L109.935632,6.70538293 L109.935632,9.76612654 C110.436928,8.82598075 111.158623,8.0213444 112.038912,7.42112605 C112.864269,6.82968688 113.849066,6.50142132 114.864214,6.47935879 L114.892467,9.71275973 L114.71981,9.70962051 Z" id="Path"></path>
                <path d="M114.537735,21.5225212 C114.130549,21.1237993 113.903774,20.5761372 113.90989,20.0062759 C113.904825,19.4432962 114.126014,18.9018565 114.523821,18.5034586 C114.921629,18.1050607 115.462741,17.883069 116.025727,17.8872996 C116.595306,17.882637 117.142422,18.109186 117.541972,18.5151444 C117.953259,18.9058771 118.181138,19.4516462 118.169817,20.0188328 C118.169817,21.2029811 117.209875,22.1629571 116.025727,22.1629571 C115.462148,22.166195 114.922786,21.9340643 114.537735,21.5225212 Z" id="Path"></path>
                <path d="M122.561592,3.67289233 C121.892259,2.99211744 121.795466,1.93393625 122.33018,1.14302497 C122.864895,0.35211369 123.88294,0.047646172 124.764092,0.415113368 C125.645243,0.782580533 126.145321,1.72015147 125.959661,2.6566294 C125.774001,3.59310732 124.954055,4.26897956 123.999357,4.27248416 C123.457456,4.28187317 122.936257,4.06451759 122.561592,3.67289233 Z M125.568969,21.9212027 L122.36696,21.9212027 L122.36696,6.70538293 L125.568969,6.70538293 L125.568969,21.9212027 Z" id="Shape"></path>
                <path d="M142.925739,19.8775677 C139.713416,22.9077427 134.69559,22.9077427 131.483267,19.8775677 C128.431362,16.7957693 128.431362,11.8308163 131.483267,8.7490179 C134.69559,5.71884298 139.713416,5.71884298 142.925739,8.7490179 C145.977645,11.8308163 145.977645,16.7957693 142.925739,19.8775677 Z M133.756065,17.893578 C135.683355,19.7513679 138.735069,19.7513679 140.662359,17.893578 C142.475329,15.8438062 142.475329,12.7639441 140.662359,10.7141723 C138.735069,8.85638244 135.683355,8.85638244 133.756065,10.7141723 C131.947291,12.7655315 131.947291,15.8422188 133.756065,17.893578 Z" id="Shape"></path>
            </g>
        </g>
    </g>
</svg>